<mxfile host="app.diagrams.net" modified="2022-10-16T10:22:35.687Z" agent="5.0 (Windows NT 10.0; Win64; x64) AppleWebKit/537.36 (KHTML, like Gecko) Chrome/106.0.0.0 Safari/537.36" etag="4sNv-DAtArwI9ikM9uDo" version="20.4.1" type="github">
  <diagram id="_g-qhl_jxSl6UDKvuMPu" name="Page-1">
    <mxGraphModel dx="2062" dy="754" grid="1" gridSize="10" guides="1" tooltips="1" connect="1" arrows="1" fold="1" page="1" pageScale="1" pageWidth="827" pageHeight="1169" math="0" shadow="0">
      <root>
        <mxCell id="0" />
        <mxCell id="1" parent="0" />
        <mxCell id="whhe9bmotB6zzgpmrj41-1" value="Store/REdux&lt;br&gt;&lt;br&gt;progress" style="ellipse;whiteSpace=wrap;html=1;" vertex="1" parent="1">
          <mxGeometry x="590" y="20" width="210" height="150" as="geometry" />
        </mxCell>
        <mxCell id="whhe9bmotB6zzgpmrj41-2" value="Landing" style="rounded=0;whiteSpace=wrap;html=1;" vertex="1" parent="1">
          <mxGeometry x="190" y="110" width="330" height="70" as="geometry" />
        </mxCell>
        <mxCell id="whhe9bmotB6zzgpmrj41-3" value="NAV" style="rounded=0;whiteSpace=wrap;html=1;" vertex="1" parent="1">
          <mxGeometry x="60" y="220" width="150" height="60" as="geometry" />
        </mxCell>
        <mxCell id="whhe9bmotB6zzgpmrj41-4" value="Lessons/screens" style="rounded=0;whiteSpace=wrap;html=1;" vertex="1" parent="1">
          <mxGeometry x="10" y="320" width="180" height="50" as="geometry" />
        </mxCell>
        <mxCell id="whhe9bmotB6zzgpmrj41-5" value="Words" style="rounded=0;whiteSpace=wrap;html=1;" vertex="1" parent="1">
          <mxGeometry x="40" y="500" width="280" height="70" as="geometry" />
        </mxCell>
        <mxCell id="whhe9bmotB6zzgpmrj41-6" value="Letters" style="rounded=0;whiteSpace=wrap;html=1;" vertex="1" parent="1">
          <mxGeometry x="60" y="620" width="120" height="60" as="geometry" />
        </mxCell>
        <mxCell id="whhe9bmotB6zzgpmrj41-7" value="Group" style="rounded=0;whiteSpace=wrap;html=1;" vertex="1" parent="1">
          <mxGeometry x="40" y="400" width="240" height="60" as="geometry" />
        </mxCell>
        <mxCell id="whhe9bmotB6zzgpmrj41-8" value="Sound/image" style="rounded=0;whiteSpace=wrap;html=1;" vertex="1" parent="1">
          <mxGeometry x="260" y="620" width="146" height="60" as="geometry" />
        </mxCell>
        <mxCell id="whhe9bmotB6zzgpmrj41-9" value="" style="curved=1;endArrow=classic;html=1;rounded=0;exitX=0.75;exitY=1;exitDx=0;exitDy=0;entryX=0.5;entryY=0;entryDx=0;entryDy=0;" edge="1" parent="1" source="whhe9bmotB6zzgpmrj41-5" target="whhe9bmotB6zzgpmrj41-8">
          <mxGeometry width="50" height="50" relative="1" as="geometry">
            <mxPoint x="390" y="510" as="sourcePoint" />
            <mxPoint x="440" y="460" as="targetPoint" />
            <Array as="points">
              <mxPoint x="270" y="580" />
            </Array>
          </mxGeometry>
        </mxCell>
        <mxCell id="whhe9bmotB6zzgpmrj41-10" value="" style="shape=flexArrow;endArrow=classic;startArrow=classic;html=1;rounded=0;exitX=0.5;exitY=0;exitDx=0;exitDy=0;" edge="1" parent="1" source="whhe9bmotB6zzgpmrj41-6" target="whhe9bmotB6zzgpmrj41-5">
          <mxGeometry width="100" height="100" relative="1" as="geometry">
            <mxPoint x="360" y="540" as="sourcePoint" />
            <mxPoint x="460" y="440" as="targetPoint" />
          </mxGeometry>
        </mxCell>
        <mxCell id="whhe9bmotB6zzgpmrj41-11" value="" style="shape=flexArrow;endArrow=classic;startArrow=classic;html=1;rounded=0;exitX=1;exitY=0.5;exitDx=0;exitDy=0;entryX=0;entryY=0.5;entryDx=0;entryDy=0;" edge="1" parent="1" source="whhe9bmotB6zzgpmrj41-6" target="whhe9bmotB6zzgpmrj41-8">
          <mxGeometry width="100" height="100" relative="1" as="geometry">
            <mxPoint x="360" y="540" as="sourcePoint" />
            <mxPoint x="460" y="440" as="targetPoint" />
          </mxGeometry>
        </mxCell>
      </root>
    </mxGraphModel>
  </diagram>
</mxfile>
